<?xml version="1.0" encoding="UTF-8" standalone="no"?>
<svg version="1.2" baseProfile="tiny"
     xmlns="http://www.w3.org/2000/svg"
     xmlns:xlink="http://www.w3.org/1999/xlink"
     width="100%" height="100%" viewBox="0 0 1080 1080">
  <title>Xlocat Logo</title>
  <desc>Official brand logo of Xlocat for BIMI email authentication</desc>
  <path d="M421.488 215H201L655.756 865.439H879L421.488 215Z" fill="#003E60"/>
  <path d="M733.961 215C704.368 215.035 675.996 226.681 655.071 247.386C634.145 268.09 622.374 296.161 622.339 325.441C622.312 349.367 630.21 372.643 644.826 391.705C644.826 391.705 647.87 395.671 648.367 396.243L733.961 496.122L819.595 396.193C820.042 395.661 823.096 391.705 823.096 391.705L823.106 391.675C837.712 372.62 845.606 349.356 845.583 325.441C845.548 296.161 833.776 268.09 812.851 247.386C791.925 226.681 763.554 215.035 733.961 215ZM733.961 365.601C725.933 365.601 718.085 363.246 711.41 358.833C704.735 354.42 699.533 348.148 696.461 340.809C693.389 333.471 692.585 325.396 694.151 317.606C695.717 309.816 699.583 302.66 705.26 297.043C710.936 291.427 718.169 287.602 726.042 286.052C733.916 284.503 742.077 285.298 749.494 288.338C756.911 291.377 763.25 296.525 767.71 303.129C772.17 309.733 774.551 317.498 774.551 325.441C774.537 336.088 770.256 346.295 762.647 353.824C755.038 361.352 744.722 365.588 733.961 365.601Z" fill="#62DCD0"/>
  <path d="M343.287 865.438C313.694 865.403 285.323 853.757 264.397 833.052C243.471 812.348 231.7 784.277 231.665 754.997C231.638 731.071 239.537 707.795 254.152 688.733C254.152 688.733 257.196 684.767 257.693 684.195L343.287 584.316L428.921 684.245C429.368 684.777 432.422 688.733 432.422 688.733L432.432 688.763C447.038 707.818 454.932 731.082 454.909 754.997C454.874 784.277 443.103 812.348 422.177 833.052C401.251 853.757 372.88 865.403 343.287 865.438ZM343.287 714.837C335.259 714.837 327.411 717.192 320.737 721.605C314.062 726.018 308.859 732.29 305.787 739.629C302.715 746.967 301.911 755.042 303.477 762.832C305.043 770.622 308.909 777.778 314.586 783.395C320.262 789.011 327.495 792.836 335.368 794.386C343.242 795.935 351.403 795.14 358.82 792.1C366.237 789.061 372.576 783.913 377.036 777.309C381.496 770.705 383.877 762.94 383.877 754.997C383.863 744.35 379.583 734.143 371.973 726.614C364.364 719.086 354.048 714.85 343.287 714.837Z" fill="#62DCD0"/>
</svg>