<svg width="1080" height="1080" viewBox="0 0 1080 1080" fill="none" xmlns="http://www.w3.org/2000/svg">
<path d="M322.574 454.672L358.137 500.372H358.968L394.033 454.672H402.841L363.123 506.687L413.476 571H394.698L354.149 518.985H353.484L313.767 571H304.793L349.33 513.002L303.962 454.672H322.574ZM438.362 571V454.672H453.485V561.86H513.476V571H438.362ZM526.698 512.836C526.698 506.521 527.862 499.819 530.188 492.728C532.626 485.638 536.392 479.157 541.489 473.285C546.585 467.302 553.066 462.372 560.932 458.495C568.798 454.617 578.215 452.678 589.183 452.678C600.262 452.678 609.845 454.672 617.933 458.661C626.131 462.538 632.889 467.468 638.207 473.451C643.525 479.433 647.458 485.97 650.006 493.06C652.554 500.04 653.828 506.632 653.828 512.836C653.828 516.935 653.219 521.256 652 525.798C650.892 530.341 649.175 534.883 646.848 539.425C644.632 543.857 641.752 548.122 638.207 552.221C634.662 556.21 630.452 559.755 625.577 562.857C620.813 565.959 615.384 568.452 609.291 570.335C603.308 572.108 596.606 572.994 589.183 572.994C578.215 572.994 568.798 571.055 560.932 567.178C553.066 563.189 546.585 558.204 541.489 552.221C536.392 546.239 532.626 539.758 530.188 532.778C527.862 525.688 526.698 519.04 526.698 512.836ZM542.984 512.836C542.984 520.591 544.148 527.737 546.474 534.274C548.911 540.699 552.18 546.239 556.279 550.892C560.489 555.545 565.419 559.201 571.069 561.86C576.719 564.408 582.868 565.682 589.515 565.682C596.052 565.682 602.201 564.408 607.962 561.86C613.833 559.201 618.93 555.545 623.25 550.892C627.682 546.239 631.172 540.699 633.72 534.274C636.268 527.737 637.542 520.591 637.542 512.836C637.542 505.081 636.268 497.991 633.72 491.565C631.172 485.028 627.682 479.434 623.25 474.78C618.93 470.127 613.833 466.527 607.962 463.979C602.201 461.32 596.052 459.99 589.515 459.99C582.868 459.99 576.719 461.32 571.069 463.979C565.419 466.527 560.489 470.127 556.279 474.78C552.18 479.434 548.911 485.028 546.474 491.565C544.148 497.991 542.984 505.081 542.984 512.836ZM779.999 549.562L784.985 554.049C783.545 555.711 781.44 557.65 778.67 559.866C775.9 562.082 772.41 564.187 768.2 566.181C764.101 568.064 759.226 569.671 753.576 571C748.037 572.329 741.722 572.994 734.631 572.994C723.442 572.994 713.803 571.277 705.716 567.843C697.628 564.297 690.981 559.7 685.774 554.049C680.567 548.288 676.689 541.752 674.141 534.44C671.704 527.017 670.485 519.428 670.485 511.673C670.485 502.699 672.036 494.611 675.138 487.41C678.24 480.098 682.616 473.894 688.267 468.798C693.917 463.591 700.675 459.602 708.541 456.833C716.518 454.063 725.325 452.678 734.964 452.678C741.611 452.678 747.538 453.343 752.745 454.672C757.952 456.002 762.495 457.83 766.372 460.156C770.25 462.483 773.463 465.253 776.011 468.465C778.67 471.678 780.83 475.168 782.492 478.935H770.195C769.419 476.608 768.034 474.337 766.04 472.121C764.157 469.795 761.664 467.745 758.562 465.973C755.57 464.2 752.081 462.76 748.092 461.652C744.215 460.544 739.894 459.99 735.13 459.99C728.15 459.99 721.669 461.264 715.687 463.812C709.815 466.36 704.719 469.906 700.398 474.448C696.077 478.99 692.698 484.419 690.261 490.734C687.934 496.938 686.771 503.807 686.771 511.341C686.771 518.431 687.879 525.244 690.095 531.781C692.421 538.317 695.8 544.078 700.232 549.064C704.663 554.049 710.203 558.038 716.85 561.029C723.497 564.02 731.142 565.516 739.783 565.516C755.294 565.516 768.699 560.198 779.999 549.562ZM872.86 536.766H815.527L800.903 571H793.259L842.449 454.672H850.758L904.933 571H888.814L872.86 536.766ZM869.37 529.288L843.28 473.285H842.615L818.685 529.288H869.37ZM953.011 571H937.888V463.812H893.351V454.672H997.548V463.812H953.011V571Z" fill="#003E60"/>
<path d="M300.568 613.3C300.568 611.203 300.987 609.378 301.826 607.824C302.664 606.245 303.824 605.024 305.304 604.161C306.808 603.297 308.523 602.866 310.447 602.866C312.938 602.866 314.985 603.47 316.589 604.679C318.217 605.887 319.29 607.565 319.808 609.711H316.182C315.836 608.477 315.158 607.503 314.147 606.788C313.16 606.072 311.927 605.715 310.447 605.715C308.523 605.715 306.969 606.381 305.785 607.713C304.601 609.02 304.009 610.882 304.009 613.3C304.009 615.742 304.601 617.629 305.785 618.961C306.969 620.293 308.523 620.959 310.447 620.959C311.927 620.959 313.16 620.613 314.147 619.923C315.133 619.232 315.812 618.245 316.182 616.963H319.808C319.265 619.035 318.18 620.7 316.552 621.958C314.924 623.191 312.889 623.808 310.447 623.808C308.523 623.808 306.808 623.376 305.304 622.513C303.824 621.649 302.664 620.428 301.826 618.85C300.987 617.271 300.568 615.421 300.568 613.3ZM328.407 606.492C328.999 605.332 329.838 604.432 330.923 603.791C332.033 603.149 333.378 602.829 334.956 602.829V606.307H334.068C330.294 606.307 328.407 608.354 328.407 612.449V623.475H325.04V603.199H328.407V606.492ZM358.083 612.56C358.083 613.201 358.046 613.879 357.972 614.595H341.766C341.889 616.593 342.568 618.159 343.801 619.294C345.059 620.404 346.576 620.959 348.352 620.959C349.807 620.959 351.016 620.626 351.978 619.96C352.965 619.269 353.655 618.356 354.05 617.222H357.676C357.133 619.17 356.048 620.761 354.42 621.995C352.792 623.203 350.769 623.808 348.352 623.808C346.428 623.808 344.701 623.376 343.172 622.513C341.667 621.649 340.483 620.428 339.62 618.85C338.757 617.246 338.325 615.396 338.325 613.3C338.325 611.203 338.744 609.365 339.583 607.787C340.422 606.208 341.593 604.999 343.098 604.161C344.627 603.297 346.379 602.866 348.352 602.866C350.276 602.866 351.978 603.285 353.458 604.124C354.938 604.962 356.073 606.122 356.862 607.602C357.676 609.057 358.083 610.71 358.083 612.56ZM354.605 611.857C354.605 610.574 354.321 609.476 353.754 608.564C353.187 607.626 352.41 606.923 351.423 606.455C350.461 605.961 349.388 605.715 348.204 605.715C346.502 605.715 345.047 606.257 343.838 607.343C342.654 608.428 341.976 609.933 341.803 611.857H354.605ZM362.009 613.263C362.009 611.191 362.429 609.378 363.267 607.824C364.106 606.245 365.253 605.024 366.708 604.161C368.188 603.297 369.829 602.866 371.629 602.866C373.405 602.866 374.947 603.248 376.254 604.013C377.562 604.777 378.536 605.739 379.177 606.899V603.199H382.581V623.475H379.177V619.701C378.511 620.885 377.512 621.871 376.18 622.661C374.873 623.425 373.344 623.808 371.592 623.808C369.792 623.808 368.164 623.364 366.708 622.476C365.253 621.588 364.106 620.342 363.267 618.739C362.429 617.135 362.009 615.31 362.009 613.263ZM379.177 613.3C379.177 611.77 378.869 610.438 378.252 609.304C377.636 608.169 376.797 607.306 375.736 606.714C374.7 606.097 373.553 605.789 372.295 605.789C371.037 605.789 369.89 606.085 368.854 606.677C367.818 607.269 366.992 608.132 366.375 609.267C365.759 610.401 365.45 611.733 365.45 613.263C365.45 614.817 365.759 616.173 366.375 617.333C366.992 618.467 367.818 619.343 368.854 619.96C369.89 620.552 371.037 620.848 372.295 620.848C373.553 620.848 374.7 620.552 375.736 619.96C376.797 619.343 377.636 618.467 378.252 617.333C378.869 616.173 379.177 614.829 379.177 613.3ZM393.118 605.974V617.925C393.118 618.911 393.328 619.614 393.747 620.034C394.166 620.428 394.894 620.626 395.93 620.626H398.409V623.475H395.375C393.5 623.475 392.094 623.043 391.157 622.18C390.22 621.316 389.751 619.898 389.751 617.925V605.974H387.124V603.199H389.751V598.093H393.118V603.199H398.409V605.974H393.118ZM412.072 623.808C410.172 623.808 408.446 623.376 406.892 622.513C405.362 621.649 404.154 620.428 403.266 618.85C402.402 617.246 401.971 615.396 401.971 613.3C401.971 611.228 402.415 609.402 403.303 607.824C404.215 606.22 405.449 604.999 407.003 604.161C408.557 603.297 410.296 602.866 412.22 602.866C414.144 602.866 415.883 603.297 417.437 604.161C418.991 604.999 420.212 606.208 421.1 607.787C422.012 609.365 422.469 611.203 422.469 613.3C422.469 615.396 422 617.246 421.063 618.85C420.15 620.428 418.904 621.649 417.326 622.513C415.747 623.376 413.996 623.808 412.072 623.808ZM412.072 620.848C413.28 620.848 414.415 620.564 415.476 619.997C416.536 619.429 417.387 618.578 418.029 617.444C418.695 616.309 419.028 614.928 419.028 613.3C419.028 611.672 418.707 610.29 418.066 609.156C417.424 608.021 416.586 607.182 415.55 606.64C414.514 606.072 413.391 605.789 412.183 605.789C410.949 605.789 409.815 606.072 408.779 606.64C407.767 607.182 406.953 608.021 406.337 609.156C405.72 610.29 405.412 611.672 405.412 613.3C405.412 614.952 405.708 616.346 406.3 617.481C406.916 618.615 407.73 619.466 408.742 620.034C409.753 620.576 410.863 620.848 412.072 620.848ZM431.003 606.492C431.595 605.332 432.433 604.432 433.519 603.791C434.629 603.149 435.973 602.829 437.552 602.829V606.307H436.664C432.89 606.307 431.003 608.354 431.003 612.449V623.475H427.636V603.199H431.003V606.492ZM442.696 597.686H446.433L442.881 606.085H440.513L442.696 597.686ZM458.19 623.808C456.636 623.808 455.242 623.549 454.009 623.031C452.776 622.488 451.801 621.748 451.086 620.811C450.371 619.849 449.976 618.751 449.902 617.518H453.38C453.479 618.529 453.947 619.355 454.786 619.997C455.649 620.638 456.772 620.959 458.153 620.959C459.436 620.959 460.447 620.675 461.187 620.108C461.927 619.54 462.297 618.825 462.297 617.962C462.297 617.074 461.902 616.42 461.113 616.001C460.324 615.557 459.103 615.125 457.45 614.706C455.945 614.311 454.712 613.916 453.75 613.522C452.813 613.102 451.999 612.498 451.308 611.709C450.642 610.895 450.309 609.834 450.309 608.527C450.309 607.491 450.617 606.541 451.234 605.678C451.851 604.814 452.726 604.136 453.861 603.643C454.996 603.125 456.291 602.866 457.746 602.866C459.991 602.866 461.804 603.433 463.185 604.568C464.566 605.702 465.306 607.256 465.405 609.23H462.038C461.964 608.169 461.532 607.318 460.743 606.677C459.978 606.035 458.942 605.715 457.635 605.715C456.426 605.715 455.464 605.974 454.749 606.492C454.034 607.01 453.676 607.688 453.676 608.527C453.676 609.193 453.886 609.748 454.305 610.192C454.749 610.611 455.292 610.956 455.933 611.228C456.599 611.474 457.512 611.758 458.671 612.079C460.126 612.473 461.31 612.868 462.223 613.263C463.136 613.633 463.913 614.2 464.554 614.965C465.22 615.729 465.565 616.728 465.59 617.962C465.59 619.072 465.282 620.071 464.665 620.959C464.048 621.847 463.173 622.55 462.038 623.068C460.928 623.561 459.645 623.808 458.19 623.808ZM485.054 606.936C485.72 605.776 486.707 604.814 488.014 604.05C489.346 603.26 490.888 602.866 492.639 602.866C494.44 602.866 496.068 603.297 497.523 604.161C499.003 605.024 500.163 606.245 501.001 607.824C501.84 609.378 502.259 611.191 502.259 613.263C502.259 615.31 501.84 617.135 501.001 618.739C500.163 620.342 499.003 621.588 497.523 622.476C496.068 623.364 494.44 623.808 492.639 623.808C490.913 623.808 489.383 623.425 488.051 622.661C486.744 621.871 485.745 620.897 485.054 619.738V633.095H481.687V603.199H485.054V606.936ZM498.818 613.263C498.818 611.733 498.51 610.401 497.893 609.267C497.277 608.132 496.438 607.269 495.377 606.677C494.341 606.085 493.194 605.789 491.936 605.789C490.703 605.789 489.556 606.097 488.495 606.714C487.459 607.306 486.621 608.181 485.979 609.341C485.363 610.475 485.054 611.795 485.054 613.3C485.054 614.829 485.363 616.173 485.979 617.333C486.621 618.467 487.459 619.343 488.495 619.96C489.556 620.552 490.703 620.848 491.936 620.848C493.194 620.848 494.341 620.552 495.377 619.96C496.438 619.343 497.277 618.467 497.893 617.333C498.51 616.173 498.818 614.817 498.818 613.263ZM510.798 596.095V623.475H507.431V596.095H510.798ZM516.019 613.263C516.019 611.191 516.438 609.378 517.277 607.824C518.116 606.245 519.263 605.024 520.718 604.161C522.198 603.297 523.838 602.866 525.639 602.866C527.415 602.866 528.957 603.248 530.264 604.013C531.571 604.777 532.546 605.739 533.187 606.899V603.199H536.591V623.475H533.187V619.701C532.521 620.885 531.522 621.871 530.19 622.661C528.883 623.425 527.353 623.808 525.602 623.808C523.801 623.808 522.173 623.364 520.718 622.476C519.263 621.588 518.116 620.342 517.277 618.739C516.438 617.135 516.019 615.31 516.019 613.263ZM533.187 613.3C533.187 611.77 532.879 610.438 532.262 609.304C531.645 608.169 530.807 607.306 529.746 606.714C528.71 606.097 527.563 605.789 526.305 605.789C525.047 605.789 523.9 606.085 522.864 606.677C521.828 607.269 521.002 608.132 520.385 609.267C519.768 610.401 519.46 611.733 519.46 613.263C519.46 614.817 519.768 616.173 520.385 617.333C521.002 618.467 521.828 619.343 522.864 619.96C523.9 620.552 525.047 620.848 526.305 620.848C527.563 620.848 528.71 620.552 529.746 619.96C530.807 619.343 531.645 618.467 532.262 617.333C532.879 616.173 533.187 614.829 533.187 613.3ZM547.128 605.974V617.925C547.128 618.911 547.337 619.614 547.757 620.034C548.176 620.428 548.904 620.626 549.94 620.626H552.419V623.475H549.385C547.51 623.475 546.104 623.043 545.167 622.18C544.229 621.316 543.761 619.898 543.761 617.925V605.974H541.134V603.199H543.761V598.093H547.128V603.199H552.419V605.974H547.128ZM565.489 605.974H561.234V623.475H557.867V605.974H555.24V603.199H557.867V601.756C557.867 599.486 558.447 597.834 559.606 596.798C560.79 595.737 562.677 595.207 565.267 595.207V598.019C563.787 598.019 562.739 598.315 562.122 598.907C561.53 599.474 561.234 600.424 561.234 601.756V603.199H565.489V605.974ZM578.998 623.808C577.099 623.808 575.372 623.376 573.818 622.513C572.289 621.649 571.08 620.428 570.192 618.85C569.329 617.246 568.897 615.396 568.897 613.3C568.897 611.228 569.341 609.402 570.229 607.824C571.142 606.22 572.375 604.999 573.929 604.161C575.483 603.297 577.222 602.866 579.146 602.866C581.07 602.866 582.809 603.297 584.363 604.161C585.917 604.999 587.138 606.208 588.026 607.787C588.939 609.365 589.395 611.203 589.395 613.3C589.395 615.396 588.926 617.246 587.989 618.85C587.076 620.428 585.831 621.649 584.252 622.513C582.673 623.376 580.922 623.808 578.998 623.808ZM578.998 620.848C580.207 620.848 581.341 620.564 582.402 619.997C583.463 619.429 584.314 618.578 584.955 617.444C585.621 616.309 585.954 614.928 585.954 613.3C585.954 611.672 585.633 610.29 584.992 609.156C584.351 608.021 583.512 607.182 582.476 606.64C581.44 606.072 580.318 605.789 579.109 605.789C577.876 605.789 576.741 606.072 575.705 606.64C574.694 607.182 573.88 608.021 573.263 609.156C572.646 610.29 572.338 611.672 572.338 613.3C572.338 614.952 572.634 616.346 573.226 617.481C573.843 618.615 574.657 619.466 575.668 620.034C576.679 620.576 577.789 620.848 578.998 620.848ZM597.929 606.492C598.521 605.332 599.36 604.432 600.445 603.791C601.555 603.149 602.899 602.829 604.478 602.829V606.307H603.59C599.816 606.307 597.929 608.354 597.929 612.449V623.475H594.562V603.199H597.929V606.492ZM633.488 602.829C635.066 602.829 636.472 603.162 637.706 603.828C638.939 604.469 639.913 605.443 640.629 606.751C641.344 608.058 641.702 609.649 641.702 611.524V623.475H638.372V612.005C638.372 609.982 637.866 608.44 636.855 607.38C635.868 606.294 634.524 605.752 632.822 605.752C631.07 605.752 629.677 606.319 628.641 607.454C627.605 608.564 627.087 610.179 627.087 612.301V623.475H623.757V612.005C623.757 609.982 623.251 608.44 622.24 607.38C621.253 606.294 619.909 605.752 618.207 605.752C616.455 605.752 615.062 606.319 614.026 607.454C612.99 608.564 612.472 610.179 612.472 612.301V623.475H609.105V603.199H612.472V606.122C613.138 605.061 614.026 604.247 615.136 603.68C616.27 603.112 617.516 602.829 618.873 602.829C620.575 602.829 622.079 603.211 623.387 603.976C624.694 604.74 625.668 605.863 626.31 607.343C626.877 605.912 627.814 604.802 629.122 604.013C630.429 603.223 631.884 602.829 633.488 602.829Z" fill="#003E60"/>
<path d="M136.418 455H79L197.426 624.384H255.562L136.418 455Z" fill="#003E60"/>
<path d="M217.791 455C210.084 455.009 202.696 458.042 197.247 463.434C191.797 468.825 188.732 476.135 188.723 483.76C188.716 489.991 190.773 496.053 194.579 501.017C194.579 501.017 195.371 502.05 195.501 502.199L217.791 528.209L240.091 502.186C240.208 502.047 241.003 501.017 241.003 501.017L241.006 501.009C244.809 496.047 246.865 489.988 246.859 483.76C246.85 476.135 243.784 468.825 238.335 463.434C232.886 458.042 225.497 455.009 217.791 455ZM217.791 494.219C215.7 494.219 213.657 493.605 211.918 492.456C210.18 491.307 208.825 489.674 208.025 487.763C207.225 485.852 207.016 483.749 207.424 481.72C207.831 479.691 208.838 477.828 210.316 476.365C211.795 474.903 213.678 473.907 215.729 473.503C217.779 473.1 219.904 473.307 221.836 474.098C223.767 474.89 225.418 476.23 226.58 477.95C227.741 479.67 228.361 481.692 228.361 483.76C228.357 486.533 227.243 489.191 225.261 491.152C223.28 493.112 220.593 494.215 217.791 494.219Z" fill="#62DCD0"/>
<path d="M116.053 624.384C108.347 624.375 100.959 621.342 95.5093 615.95C90.0599 610.558 86.9945 603.248 86.9854 595.623C86.9783 589.392 89.0352 583.331 92.8413 578.367C92.8413 578.367 93.634 577.334 93.7635 577.185L116.053 551.175L138.354 577.198C138.47 577.337 139.266 578.367 139.266 578.367L139.268 578.375C143.072 583.337 145.128 589.395 145.122 595.623C145.112 603.248 142.047 610.558 136.598 615.95C131.148 621.342 123.76 624.375 116.053 624.384ZM116.053 585.165C113.963 585.165 111.919 585.778 110.181 586.927C108.443 588.077 107.088 589.71 106.288 591.621C105.488 593.532 105.278 595.635 105.686 597.664C106.094 599.692 107.101 601.556 108.579 603.018C110.057 604.481 111.941 605.477 113.991 605.881C116.042 606.284 118.167 606.077 120.098 605.286C122.03 604.494 123.681 603.154 124.842 601.434C126.004 599.714 126.624 597.692 126.624 595.623C126.62 592.851 125.505 590.193 123.524 588.232C121.542 586.271 118.856 585.168 116.053 585.165Z" fill="#62DCD0"/>
</svg>
