<?xml version="1.0" encoding="UTF-8" standalone="no"?>
<svg version="1.2" baseProfile="tiny" xmlns="http://www.w3.org/2000/svg" xmlns:xlink="http://www.w3.org/1999/xlink" width="100%" height="100%" viewBox="0 0 1107 1107">
  <title>Xlocat</title>
  <desc>Official logo of Xlocat for BIMI email authentication</desc>
  <g fill="#111111" stroke="none">
    <path d="M0 5535v-5535h5535 5535v5535 5535h-5535-5535v-5535zm6635 14c1254-1783 2281-3248 2283-3255 3-12-165-14-1108-12l-1112 3-2244 3210c-1235 1766-2258 3229-2275 3253l-30 42h1103 1103l2280-3241zm1020 3226c658-106 1079-754 899-1383-28-100-94-241-150-324-39-57-914-1087-924-1087-6 0-867 1007-905 1059-76 102-141 239-175 368-165 625 251 1258 897 1367 106 18 250 18 358 0zm-3658-4172c230-269 445-524 478-568 226-299 276-707 130-1061-143-346-440-588-815-666-138-29-374-21-510 16-359 99-648 371-766 720-73 213-73 479 0 694 32 92 105 232 158 303 63 82 892 1049 900 1049 4 0 195-219 425-487z"/>
    <path d="M7400 8080c-74-16-163-66-214-120-221-237-89-619 232-669 173-27 350 65 427 224 25 50 30 74 33 155 3 79 0 105-17 151-57 150-192 251-353 263-35 3-83 1-108-4z"/>
    <path d="M3447 3770c-113-40-197-115-245-218-24-50-27-69-27-162 0-93 3-112 27-162 120-256 459-318 657-120 197 197 138 525-115 644-89 41-210 49-297 18z"/>
  </g>
</svg>
</svg>